{"title":"The Conspirator 2010 PPVRip XViD DTRG","uid":6524307,"size":1051072659,"categoryP":"video","categoryS":"movies","magnet":"?xt=urn:btih:29876e6f7f40136a63865f34471c930e60e667f6&amp;dn=The+Conspirator+2010+PPVRip+XViD+DTRG&amp;tr=udp%3A%2F%2Ftracker.openbittorrent.com%3A80&amp;tr=udp%3A%2F%2Fopen.demonii.com%3A1337&amp;tr=udp%3A%2F%2Ftracker.coppersurfer.tk%3A6969&amp;tr=udp%3A%2F%2Fexodus.desync.com%3A6969","seeders":0,"leechers":1,"uploader":"SAFCukO09","files":3,"time":1310110963,"description":"\n\n\nFormat                           : AVI\nFormat/Info                      : Audio Video Interleave\nFile size                        : 1 002 MiB\nDuration                         : 2h 2mn\nOverall bit rate                 : 1 146 Kbps\nWriting library                  : VirtualDub build 32842/release\n\nVideo\nID                               : 0\nFormat                           : MPEG-4 Visual\nFormat profile                   : Advanced Simple@L5\nFormat settings, BVOP            : 2\nFormat settings, QPel            : No\nFormat settings, GMC             : No warppoints\nFormat settings, Matrix          : Default (H.263)\nMuxing mode                      : Packed bitstream\nCodec ID                         : XVID\nCodec ID/Hint                    : XviD\nDuration                         : 2h 2mn\nBit rate                         : 1 005 Kbps\nWidth                            : 632 pixels\nHeight                           : 282 pixels\nDisplay aspect ratio             : 2.25:1\nFrame rate                       : 29.970 fps\nColor space                      : YUV\nChroma subsampling               : 4:2:0\nBit depth                        : 8 bits\nScan type                        : Progressive\nCompression mode                 : Lossy\nBits/(Pixel*Frame)               : 0.188\nStream size                      : 879 MiB (88%)\nWriting library                  : XviD 64\n\nAudio\nID                               : 1\nFormat                           : MPEG Audio\nFormat version                   : Version 1\nFormat profile                   : Layer 3\nMode                             : Joint stereo\nMode extension                   : MS Stereo\nCodec ID                         : 55\nCodec ID/Hint                    : MP3\nDuration                         : 2h 2mn\nBit rate mode                    : Constant\nBit rate                         : 128 Kbps\nChannel(s)                       : 2 channels\nSampling rate                    : 44.1 KHz\nCompression mode                 : Lossy\nStream size                      : 112 MiB (11%)\nAlignment                        : Aligned on interleaves\nInterleave, duration             : 26 ms (0.78 video frame)\nInterleave, preload duration     : 522 ms\nWriting library                  : LAME3.98.2\n\n\n\n\n\n\n &lt;a href=&quot;\nhttp://www.imdb.com/title/tt0968264/&quot; rel=&quot;nofollow&quot; target=&quot;_NEW&quot;&gt;\nhttp://www.imdb.com/title/tt0968264/&lt;/a&gt;\n\n\n\n\n[IMG]http://leetleech.org/images/89524873606771859129.png[/IMG]\n\n\nUsers:  (1,614 votes) 61 reviews | Critics: 96 reviews Metascore: 55/100 (based on 37 reviews from Metacritic.com) \n\n\nMary Surratt is the lone female charged as a co-conspirator in the assassination trial of Abraham Lincoln. As the whole nation turns against her, she is forced to rely on her reluctant lawyer to uncover the truth and save her life. \n\n Director: Robert Redford\n Writers: James D. Solomon (screenplay), James D. Solomon (story),  and 1 more credit Ã‚Â» \nStars: Robin Wright, James McAvoy and Tom Wilkinson\n\n\n\n\n\n\n\n &lt;a href=&quot;\nhttp://leetleech.org/images/84280466083771294198.png&quot; rel=&quot;nofollow&quot; target=&quot;_NEW&quot;&gt;\nhttp://leetleech.org/images/84280466083771294198.png&lt;/a&gt;\n &lt;a href=&quot;\nhttp://leetleech.org/images/24656813657319060410.png&quot; rel=&quot;nofollow&quot; target=&quot;_NEW&quot;&gt;\nhttp://leetleech.org/images/24656813657319060410.png&lt;/a&gt;\n &lt;a href=&quot;\nhttp://leetleech.org/images/07603375345643157298.png&quot; rel=&quot;nofollow&quot; target=&quot;_NEW&quot;&gt;\nhttp://leetleech.org/images/07603375345643157298.png&lt;/a&gt;\n &lt;a href=&quot;\nhttp://leetleech.org/images/48087827298076460946.png&quot; rel=&quot;nofollow&quot; target=&quot;_NEW&quot;&gt;\nhttp://leetleech.org/images/48087827298076460946.png&lt;/a&gt;\n\n\n\n\nSource Used \n\n\n\nIFLiX ................Thanks\n\n\n\nJust cropped black borders,resized few filters to be honest i hate doing ppvs but done it anyway so\n\n\n\nEnjoy\n\n\n\n\n\nGreetz to IMAGiNE,Flawl3ss,DiLLoN,BDK,NOiR,TOXiC,THC,Ez,Rx,Boobyblue,TaRiQ786,BHRG\n\n\n\n\n\n\n\n","torrent":{"xt":"urn:btih:29876e6f7f40136a63865f34471c930e60e667f6","amp;dn":"The+Conspirator+2010+PPVRip+XViD+DTRG","amp;tr":["udp%3A%2F%2Ftracker.openbittorrent.com%3A80","udp%3A%2F%2Fopen.demonii.com%3A1337","udp%3A%2F%2Ftracker.coppersurfer.tk%3A6969","udp%3A%2F%2Fexodus.desync.com%3A6969"],"infoHash":"29876e6f7f40136a63865f34471c930e60e667f6","infoHashBuffer":{"type":"Buffer","data":[41,135,110,111,127,64,19,106,99,134,95,52,71,28,147,14,96,230,103,246]},"announce":[],"urlList":[]}}